# AST/ASF file generated using VICON BodyLanguage
# -----------------------------------------------
:version 1.10
:name VICON
:units
  mass 1.0
  length 0.45
  angle deg
:documentation
   .ast/.asf automatically generated from VICON data using
   VICON BodyBuilder and BodyLanguage model FoxedUp or BRILLIANT.MOD
:root
   order TX TY TZ RX RY RZ
   axis XYZ
   position 0 0 0  
   orientation 0 0 0 
:bonedata
  begin
     id 1 
     name lhipjoint
     direction 0.597014 -0.743513 0.301268 
     length 2.48253 
     axis 0 0 0  XYZ
  end
  begin
     id 2 
     name lfemur
     direction 0.34202 -0.939693 0  
     length 7.51389  
     axis 0 0 20  XYZ
    dof rx ry rz
    limits (-160.0 20.0)
           (-70.0 70.0)
           (-60.0 70.0)
  end
  begin
     id 3 
     name ltibia
     direction 0.34202 -0.939693 0   
     length 7.54147   
     axis 0 0 20   XYZ
    dof rx
    limits (-10.0 170.0)
  end
  begin
     id 4 
     name lfoot
     direction 0.10378 -0.285133 0.952853   
     length 2.2132   
     axis -90 7.62852e-016 20   XYZ
    dof rx rz
    limits (-45.0 90.0)
           (-70.0 20.0)
  end
  begin
     id 5 
     name ltoes
     direction 1.5354e-011 -4.2171e-011 1   
     length 1.10362   
     axis -90 7.62852e-016 20   XYZ
    dof rx
    limits (-90.0 20.0)
  end
  begin
     id 6 
     name rhipjoint
     direction -0.591912 -0.747009 0.302685   
     length 2.47092  
     axis 0 0 0  XYZ 
  end
  begin
     id 7 
     name rfemur
     direction -0.34202 -0.939693 0   
     length 7.69991   
     axis 0 0 -20   XYZ
    dof rx ry rz
    limits (-160.0 20.0)
           (-70.0 70.0)
           (-70.0 60.0)
  end
  begin
     id 8 
     name rtibia
     direction -0.34202 -0.939693 0   
     length 7.40774   
     axis 0 0 -20   XYZ
    dof rx
    limits (-10.0 170.0)
 end
 begin
     id 9 
     name rfoot
     direction -0.0916245 -0.251736 0.963449   
     length 2.08235  
     axis -90 -7.62852e-016 -20   XYZ
    dof rx rz
    limits (-45.0 90.0)
           (-20.0 70.0)
  end
  begin
     id 10 
     name rtoes
     direction -1.53527e-011 -4.21878e-011 1   
     length 1.04369   
     axis -90 -7.62852e-016 -20   XYZ
    dof rx
    limits (-90.0 20.0)
  end
  begin
     id 11 
     name lowerback
     direction -0.0122523 0.991496 -0.12956   
     length 2.10814   
     axis 0 0 0   XYZ
    dof rx ry rz
    limits (-20.0 45.0)
           (-30.0 30.0)
           (-30.0 30.0)
  end
  begin
     id 12 
     name upperback
     direction 0.012378 0.999784 -0.0167122   
     length 2.11728   
     axis 0 0 0   XYZ
    dof rx ry rz
    limits (-20.0 45.0)
           (-30.0 30.0)
           (-30.0 30.0)
  end
  begin
     id 13 
     name thorax
     direction 0.0187236 0.998893 0.0431542   
     length 2.15267   
     axis 0 0 0   XYZ
    dof rx ry rz
    limits (-20.0 45.0)
           (-30.0 30.0)
           (-30.0 30.0)
  end
  begin
     id 14 
     name lowerneck
     direction 0.0165467 0.987304 0.157979   
     length 1.72129   
     axis 0 0 0   XYZ
    dof rx ry rz
    limits (-20.0 45.0)
           (-30.0 30.0)
           (-30.0 30.0)
  end
  begin
     id 15 
     name upperneck
     direction -0.0560236 0.986819 -0.151818   
     length 1.75382   
     axis 0 0 0   XYZ
    dof rx ry rz
    limits (-20.0 45.0)
           (-30.0 30.0)
           (-30.0 30.0)
  end
  begin
     id 16
     name head
     direction -0.0173602 0.99745 -0.0692312  
     length 1.76328  
     axis 0 0 0   XYZ
    dof rx ry rz
    limits (-20.0 45.0)
           (-30.0 30.0)
           (-30.0 30.0)
  end
  begin
     id 17 
     name lclavicle
     direction 0.957734 0.271724 -0.094399  
     length 3.5782  
     axis 0 0 0   XYZ
    dof ry rz
    limits (-20.0 10.0)
           (0.0 20.0)
  end
  begin
     id 18 
     name lhumerus
     direction 1 -4.48963e-011 1.21581e-027   
     length 5.25525   
     axis 180 -30 -90   XYZ
    dof rx ry rz
    limits (-60.0 90.0)
           (-90.0 90.0)
           (-90.0 90.0)
  end
  begin
     id 19
     name lradius
     direction 1 -4.48975e-011 3.71216e-028   
     length 3.35106   
     axis 180 -30 -90   XYZ
    dof rx
    limits (-10.0 170.0)
  end
  begin
     id 20
     name lwrist
     direction 1 -4.48957e-011 4.76535e-027   
     length 1.67553   
     axis -3.27501e-015 90 90   XYZ
    dof ry
    limits (-180.0 0.0)
 end
  begin
     id 21 
     name lhand
     direction 1 -4.49008e-011 9.52727e-027   
     length 0.574153   
     axis -6.08097e-015 90 90   XYZ
    dof rx rz
    limits (-90.0 90.0)
           (-45.0 45.0)
  end
  begin
     id 22 
     name lfingers
     direction 1 -4.48996e-011 1.90562e-026   
     length 0.462897   
     axis -1.21618e-014 90 90   XYZ
    dof rx
    limits (0.0 90.0)
  end
  begin
     id 23
     name lthumb
     direction 0.707107 -6.34908e-011 0.707107   
     length 0.66463   
     axis -90 45 -1.62303e-014   XYZ
    dof rx rz
    limits (-45.0 45.0)
           (-45.0 45.0)
  end
  begin
     id 24 
     name rclavicle
     direction -0.950439 0.29623 -0.0944132   
     length 3.45861  
     axis 0 0 0   XYZ 
    dof ry rz
    limits (-10.0 20.0)
           (-20.0 0.0)
  end
  begin
     id 25 
     name rhumerus
     direction -1 -4.48986e-011 1.25473e-027  
     length 5.33104   
     axis 180 30 90   XYZ
    dof rx ry rz
    limits (-90.0 60.0)
           (-90.0 90.0)
           (-90.0 90.0)
  end
  begin
     id 26 
     name rradius
     direction -1 -4.4894e-011 1.66273e-027   
     length 3.39883   
     axis 180 30 90   XYZ
    dof rx
    limits (-10.0 170.0)
  end
  begin
     id 27 
     name rwrist
     direction -1 -4.48946e-011 4.76572e-027   
     length 1.69941   
     axis -3.27501e-015 -90 -90   XYZ
    dof ry
    limits (-180.0 0.0)
  end
  begin
     id 28
     name rhand
     direction -1 -4.49028e-011 9.52595e-027   
     length 0.913886   
     axis -6.08097e-015 -90 -90   XYZ
    dof rx rz
    limits (-90.0 90.0)
           (-45.0 45.0)
  end
  begin
     id 29
     name rfingers
     direction -1 -4.48945e-011 1.9063e-026   
     length 0.736798   
     axis -1.21618e-014 -90 -90   XYZ
    dof rx
    limits (0.0 90.0)
  end
  begin
     id 30
     name rthumb
     direction -0.707107 -6.34966e-011 0.707107   
     length 1.0579   
     axis -90 -45 1.62303e-014   XYZ
    dof rx rz
    limits (-45.0 45.0)
           (-45.0 45.0)
  end
:hierarchy
  begin
    root lhipjoint rhipjoint lowerback
    lhipjoint lfemur
    lfemur ltibia
    ltibia lfoot
    lfoot ltoes
    rhipjoint rfemur
    rfemur rtibia
    rtibia rfoot
    rfoot rtoes
    lowerback upperback
    upperback thorax
    thorax lowerneck lclavicle rclavicle
    lowerneck upperneck
    upperneck head
    lclavicle lhumerus
    lhumerus lradius
    lradius lwrist
    lwrist lhand lthumb
    lhand lfingers
    rclavicle rhumerus
    rhumerus rradius
    rradius rwrist
    rwrist rhand rthumb
    rhand rfingers
  end

#!OML:ASF F:\VICON\USERDATA\INSTALL\rory3\rory3.ASF
:FULLY-SPECIFIED
:DEGREES
804
root -17.0779 17.5614 -36.1236 -363.432 42.6218 -357.091
lowerback 16.2583 3.12474 0.332823
upperback 2.75945 4.35117 1.56589
thorax -6.24761 2.15785 0.542376
lowerneck -23.544 9.76601 4.82349
upperneck 7.34968 13.7501 -13.5587
head 7.38538 5.62838 -3.3364
rclavicle -3.61788e-014 1.82882e-014
rhumerus -45.4365 -32.0617 -48.8935
rradius 48.9835
rwrist -19.1284
rhand -24.835 366.681
rfingers 7.12502
rthumb 1.6709 -743.292
lclavicle -3.61788e-014 1.82882e-014
lhumerus -57.504 37.989 52.3348
lradius 34.9262
lwrist 42.038
lhand -26.2965 29.6909
lfingers 7.12502
lthumb 0.259401 59.6705
rfemur -11.0081 -5.722 13.0168
rtibia 43.4957
rfoot -20.3873 -9.67232
rtoes -28.8649
lfemur -1.88487 -14.4137 -15.7915
ltibia 48.7923
lfoot -5.49247 -14.7986
ltoes -20.1308
805
root -17.1504 17.5169 -35.9341 -363.709 43.3551 -357.896
lowerback 16.1805 3.20975 0.744489
upperback 2.68953 4.54979 1.77336
thorax -6.26835 2.24836 0.490563
lowerneck -23.0981 9.55819 5.26204
upperneck 7.20405 13.4186 -14.0456
head 7.31077 5.47003 -3.62671
rclavicle -1.33086e-013 -8.74653e-015
rhumerus -48.0882 -32.8344 -48.7901
rradius 45.7184
rwrist -19.5516
rhand -23.122 366.795
rfingers 7.12502
rthumb 3.32524 -743.159
lclavicle -1.33086e-013 -8.74653e-015
lhumerus -59.2124 40.2376 50.4736
lradius 30.4911
lwrist 39.2071
lhand -28.2165 31.0895
lfingers 7.12502
lthumb -1.59501 61.0633
rfemur -10.9386 -5.73779 14.4683
rtibia 43.8814
rfoot -21.7461 -11.5255
rtoes -27.0986
lfemur -3.46831 -13.8134 -14.2766
ltibia 51.4619
lfoot -4.62566 -14.2229
ltoes -20.9414
806
root -17.212 17.4884 -35.7629 -363.892 43.5752 -358.676
lowerback 16.0727 3.34356 1.09255
upperback 2.59228 4.80144 1.99199
thorax -6.30708 2.36533 0.476294
lowerneck -22.6613 9.52991 5.71136
upperneck 7.1263 13.3216 -14.4422
head 7.2722 5.42765 -3.8516
rclavicle -3.56818e-014 6.36111e-015
rhumerus -47.9741 -33.7726 -49.2469
rradius 40.1605
rwrist -20.408
rhand -21.5717 367.736
rfingers 7.12502
rthumb 4.82231 -742.189
lclavicle -3.56818e-014 6.36111e-015
lhumerus -61.837 42.6703 47.5117
lradius 27.3606
lwrist 36.2844
lhand -27.604 30.9009
lfingers 7.12502
lthumb -1.00344 60.8783
rfemur -11.1554 -5.62438 15.8489
rtibia 44.1665
rfoot -21.9389 -13.3346
rtoes -28.3271
lfemur -5.41514 -12.6495 -13.0217
ltibia 54.2043
lfoot -3.57465 -13.2111
ltoes -21.3915
807
root -17.2886 17.4702 -35.6272 -365.042 42.8926 -360.373
lowerback 16.7782 3.68137 2.3584
upperback 2.46709 5.50513 2.15318
thorax -6.72851 2.67186 -0.260347
lowerneck -22.3812 9.37566 6.34751
upperneck 7.17303 12.9624 -14.5808
head 7.25836 5.27266 -4.05978
rclavicle 1.09332e-015 8.74653e-015
rhumerus -48.1441 -35.5949 -49.1219
rradius 33.7264
rwrist -19.8851
rhand -18.185 370.348
rfingers 7.12502
rthumb 8.09175 -739.478
lclavicle 1.09332e-015 8.74653e-015
lhumerus -63.351 43.3889 46.2171
lradius 26.0265
lwrist 35.24
lhand -28.7288 33.8664
lfingers 7.12502
lthumb -2.08979 63.8359
rfemur -11.2155 -4.81561 18.0088
rtibia 44.2118
rfoot -21.6984 -15.0499
rtoes -29.8877
lfemur -6.67996 -10.9059 -11.2225
ltibia 56.9931
lfoot -3.99276 -11.532
ltoes -23.1808
808
root -17.3818 17.4512 -35.5073 -366.571 42.3094 -362.385
lowerback 17.9349 4.02336 3.79258
upperback 2.30073 6.30412 2.39847
thorax -7.4027 3.00369 -1.06742
lowerneck -22.0161 9.24717 6.72165
upperneck 7.02994 12.7058 -14.7577
head 7.1648 5.16993 -4.22647
rclavicle -4.07509e-015 2.70347e-014
rhumerus -48.4523 -37.9556 -48.4823
rradius 27.9928
rwrist -18.504
rhand -17.2771 372.448
rfingers 7.12502
rthumb 8.96798 -737.341
lclavicle -4.07509e-015 2.70347e-014
lhumerus -63.429 42.9099 46.6473
lradius 25.1046
lwrist 35.0724
lhand -28.9516 33.2497
lfingers 7.12502
lthumb -2.305 63.217
rfemur -11.0185 -3.72596 20.486
rtibia 43.9919
rfoot -21.5439 -16.5614
rtoes -29.2663
lfemur -8.02081 -9.02132 -9.24612
ltibia 59.3546
lfoot -4.75022 -9.73478
ltoes -25.4422
809
root -17.449 17.4558 -35.3572 -367.705 43.3381 -364.124
lowerback 18.0579 3.87784 4.86868
upperback 2.27245 6.36632 2.74451
thorax -7.4238 3.00884 -1.31895
lowerneck -22.2705 8.95284 6.65923
upperneck 7.24094 12.348 -14.7877
head 7.235 4.97577 -4.27619
rclavicle -6.1822e-014 -1.35174e-014
rhumerus -48.4268 -39.9221 -47.9992
rradius 23.6293
rwrist -16.2352
rhand -17.3496 371.054
rfingers 7.12502
rthumb 8.89796 -738.738
lclavicle -6.1822e-014 -1.35174e-014
lhumerus -62.801 42.01 48.1539
lradius 24.9469
lwrist 35.1283
lhand -28.5789 32.0959
lfingers 7.12502
lthumb -1.94499 62.0668
rfemur -10.4814 -3.84375 22.5408
rtibia 43.4238
rfoot -21.5346 -18.4386
rtoes -28.7788
lfemur -9.69691 -8.47549 -7.75096
ltibia 61.1561
lfoot -5.40452 -8.36275
ltoes -23.5904
